<svg width="80" height="12" viewBox="0 0 80 12" fill="none" xmlns="http://www.w3.org/2000/svg">
<path d="M5.09993 0.873192C5.18181 0.704121 5.30966 0.561534 5.46884 0.461766C5.62801 0.361997 5.81207 0.309082 5.99993 0.309082C6.18778 0.309082 6.37184 0.361997 6.53101 0.461766C6.69019 0.561534 6.81804 0.704121 6.89993 0.873192L7.86193 2.87319C7.93455 3.02416 8.04395 3.15447 8.18006 3.25214C8.31617 3.34982 8.47465 3.41173 8.64093 3.43219L10.8409 3.70219C11.0307 3.72541 11.2098 3.80252 11.357 3.92438C11.5043 4.04625 11.6135 4.20777 11.6718 4.38981C11.7301 4.57186 11.735 4.76679 11.686 4.95153C11.6369 5.13627 11.5359 5.30308 11.3949 5.43219L9.81193 6.88519C9.68547 7.00097 9.59092 7.14732 9.53733 7.31018C9.48374 7.47304 9.47293 7.64695 9.50593 7.81519L9.91993 9.92619C9.95658 10.1121 9.93964 10.3047 9.87108 10.4814C9.80252 10.658 9.68517 10.8116 9.53269 10.9242C9.38021 11.0367 9.19888 11.1036 9.00984 11.1171C8.82079 11.1305 8.63182 11.09 8.46493 11.0002L6.47393 9.93019C6.32837 9.85194 6.16568 9.81099 6.00043 9.81099C5.83517 9.81099 5.67248 9.85194 5.52693 9.93019L3.53493 11.0002C3.36803 11.09 3.17906 11.1305 2.99002 11.1171C2.80097 11.1036 2.61965 11.0367 2.46717 10.9242C2.31468 10.8116 2.19733 10.658 2.12877 10.4814C2.06021 10.3047 2.04327 10.1121 2.07993 9.92619L2.49393 7.81519C2.52692 7.64695 2.51611 7.47304 2.46252 7.31018C2.40894 7.14732 2.31438 7.00097 2.18793 6.88519L0.599926 5.43119C0.45866 5.30213 0.357387 5.13526 0.308124 4.95036C0.258862 4.76547 0.263679 4.57033 0.322003 4.38809C0.380327 4.20585 0.48971 4.04418 0.63717 3.92224C0.78463 3.80031 0.963977 3.72325 1.15393 3.70019L3.35393 3.43019C3.5202 3.40973 3.67868 3.34782 3.81479 3.25014C3.9509 3.15247 4.0603 3.02216 4.13293 2.87119L5.09993 0.873192Z" fill="#F5B423"/>
<path d="M22.0999 0.873192C22.1818 0.704121 22.3097 0.561534 22.4688 0.461766C22.628 0.361997 22.8121 0.309082 22.9999 0.309082C23.1878 0.309082 23.3718 0.361997 23.531 0.461766C23.6902 0.561534 23.818 0.704121 23.8999 0.873192L24.8619 2.87319C24.9346 3.02416 25.0439 3.15447 25.1801 3.25214C25.3162 3.34982 25.4746 3.41173 25.6409 3.43219L27.8409 3.70219C28.0307 3.72541 28.2098 3.80252 28.357 3.92438C28.5043 4.04625 28.6135 4.20777 28.6718 4.38981C28.7301 4.57186 28.735 4.76679 28.686 4.95153C28.6369 5.13627 28.5359 5.30308 28.3949 5.43219L26.8119 6.88519C26.6855 7.00097 26.5909 7.14732 26.5373 7.31018C26.4837 7.47304 26.4729 7.64695 26.5059 7.81519L26.9199 9.92619C26.9566 10.1121 26.9396 10.3047 26.8711 10.4814C26.8025 10.658 26.6852 10.8116 26.5327 10.9242C26.3802 11.0367 26.1989 11.1036 26.0098 11.1171C25.8208 11.1305 25.6318 11.09 25.4649 11.0002L23.4739 9.93019C23.3284 9.85194 23.1657 9.81099 23.0004 9.81099C22.8352 9.81099 22.6725 9.85194 22.5269 9.93019L20.5349 11.0002C20.368 11.09 20.1791 11.1305 19.99 11.1171C19.801 11.1036 19.6196 11.0367 19.4672 10.9242C19.3147 10.8116 19.1973 10.658 19.1288 10.4814C19.0602 10.3047 19.0433 10.1121 19.0799 9.92619L19.4939 7.81519C19.5269 7.64695 19.5161 7.47304 19.4625 7.31018C19.4089 7.14732 19.3144 7.00097 19.1879 6.88519L17.5999 5.43119C17.4587 5.30213 17.3574 5.13526 17.3081 4.95036C17.2589 4.76547 17.2637 4.57033 17.322 4.38809C17.3803 4.20585 17.4897 4.04418 17.6372 3.92224C17.7846 3.80031 17.964 3.72325 18.1539 3.70019L20.3539 3.43019C20.5202 3.40973 20.6787 3.34782 20.8148 3.25014C20.9509 3.15247 21.0603 3.02216 21.1329 2.87119L22.0999 0.873192Z" fill="#F5B423"/>
<path d="M39.0999 0.873192C39.1818 0.704121 39.3097 0.561534 39.4688 0.461766C39.628 0.361997 39.8121 0.309082 39.9999 0.309082C40.1878 0.309082 40.3718 0.361997 40.531 0.461766C40.6902 0.561534 40.818 0.704121 40.8999 0.873192L41.8619 2.87319C41.9346 3.02416 42.0439 3.15447 42.1801 3.25214C42.3162 3.34982 42.4746 3.41173 42.6409 3.43219L44.8409 3.70219C45.0307 3.72541 45.2098 3.80252 45.357 3.92438C45.5043 4.04625 45.6135 4.20777 45.6718 4.38981C45.7301 4.57186 45.735 4.76679 45.686 4.95153C45.6369 5.13627 45.5359 5.30308 45.3949 5.43219L43.8119 6.88519C43.6855 7.00097 43.5909 7.14732 43.5373 7.31018C43.4837 7.47304 43.4729 7.64695 43.5059 7.81519L43.9199 9.92619C43.9566 10.1121 43.9396 10.3047 43.8711 10.4814C43.8025 10.658 43.6852 10.8116 43.5327 10.9242C43.3802 11.0367 43.1989 11.1036 43.0098 11.1171C42.8208 11.1305 42.6318 11.09 42.4649 11.0002L40.4739 9.93019C40.3284 9.85194 40.1657 9.81099 40.0004 9.81099C39.8352 9.81099 39.6725 9.85194 39.5269 9.93019L37.5349 11.0002C37.368 11.09 37.1791 11.1305 36.99 11.1171C36.801 11.1036 36.6196 11.0367 36.4672 10.9242C36.3147 10.8116 36.1973 10.658 36.1288 10.4814C36.0602 10.3047 36.0433 10.1121 36.0799 9.92619L36.4939 7.81519C36.5269 7.64695 36.5161 7.47304 36.4625 7.31018C36.4089 7.14732 36.3144 7.00097 36.1879 6.88519L34.5999 5.43119C34.4587 5.30213 34.3574 5.13526 34.3081 4.95036C34.2589 4.76547 34.2637 4.57033 34.322 4.38809C34.3803 4.20585 34.4897 4.04418 34.6372 3.92224C34.7846 3.80031 34.964 3.72325 35.1539 3.70019L37.3539 3.43019C37.5202 3.40973 37.6787 3.34782 37.8148 3.25014C37.9509 3.15247 38.0603 3.02216 38.1329 2.87119L39.0999 0.873192Z" fill="#F5B423"/>
<path d="M56.0999 0.873192C56.1818 0.704121 56.3097 0.561534 56.4688 0.461766C56.628 0.361997 56.8121 0.309082 56.9999 0.309082C57.1878 0.309082 57.3718 0.361997 57.531 0.461766C57.6902 0.561534 57.818 0.704121 57.8999 0.873192L58.8619 2.87319C58.9346 3.02416 59.0439 3.15447 59.1801 3.25214C59.3162 3.34982 59.4746 3.41173 59.6409 3.43219L61.8409 3.70219C62.0307 3.72541 62.2098 3.80252 62.357 3.92438C62.5043 4.04625 62.6135 4.20777 62.6718 4.38981C62.7301 4.57186 62.735 4.76679 62.686 4.95153C62.6369 5.13627 62.5359 5.30308 62.3949 5.43219L60.8119 6.88519C60.6855 7.00097 60.5909 7.14732 60.5373 7.31018C60.4837 7.47304 60.4729 7.64695 60.5059 7.81519L60.9199 9.92619C60.9566 10.1121 60.9396 10.3047 60.8711 10.4814C60.8025 10.658 60.6852 10.8116 60.5327 10.9242C60.3802 11.0367 60.1989 11.1036 60.0098 11.1171C59.8208 11.1305 59.6318 11.09 59.4649 11.0002L57.4739 9.93019C57.3284 9.85194 57.1657 9.81099 57.0004 9.81099C56.8352 9.81099 56.6725 9.85194 56.5269 9.93019L54.5349 11.0002C54.368 11.09 54.1791 11.1305 53.99 11.1171C53.801 11.1036 53.6196 11.0367 53.4672 10.9242C53.3147 10.8116 53.1973 10.658 53.1288 10.4814C53.0602 10.3047 53.0433 10.1121 53.0799 9.92619L53.4939 7.81519C53.5269 7.64695 53.5161 7.47304 53.4625 7.31018C53.4089 7.14732 53.3144 7.00097 53.1879 6.88519L51.5999 5.43119C51.4587 5.30213 51.3574 5.13526 51.3081 4.95036C51.2589 4.76547 51.2637 4.57033 51.322 4.38809C51.3803 4.20585 51.4897 4.04418 51.6372 3.92224C51.7846 3.80031 51.964 3.72325 52.1539 3.70019L54.3539 3.43019C54.5202 3.40973 54.6787 3.34782 54.8148 3.25014C54.9509 3.15247 55.0603 3.02216 55.1329 2.87119L56.0999 0.873192Z" fill="#F5B423"/>
<path d="M73.0999 0.873192C73.1818 0.704121 73.3097 0.561534 73.4688 0.461766C73.628 0.361997 73.8121 0.309082 73.9999 0.309082C74.1878 0.309082 74.3718 0.361997 74.531 0.461766C74.6902 0.561534 74.818 0.704121 74.8999 0.873192L75.8619 2.87319C75.9346 3.02416 76.0439 3.15447 76.1801 3.25214C76.3162 3.34982 76.4746 3.41173 76.6409 3.43219L78.8409 3.70219C79.0307 3.72541 79.2098 3.80252 79.357 3.92438C79.5043 4.04625 79.6135 4.20777 79.6718 4.38981C79.7301 4.57186 79.735 4.76679 79.686 4.95153C79.6369 5.13627 79.5359 5.30308 79.3949 5.43219L77.8119 6.88519C77.6855 7.00097 77.5909 7.14732 77.5373 7.31018C77.4837 7.47304 77.4729 7.64695 77.5059 7.81519L77.9199 9.92619C77.9566 10.1121 77.9396 10.3047 77.8711 10.4814C77.8025 10.658 77.6852 10.8116 77.5327 10.9242C77.3802 11.0367 77.1989 11.1036 77.0098 11.1171C76.8208 11.1305 76.6318 11.09 76.4649 11.0002L74.4739 9.93019C74.3284 9.85194 74.1657 9.81099 74.0004 9.81099C73.8352 9.81099 73.6725 9.85194 73.5269 9.93019L71.5349 11.0002C71.368 11.09 71.1791 11.1305 70.99 11.1171C70.801 11.1036 70.6196 11.0367 70.4672 10.9242C70.3147 10.8116 70.1973 10.658 70.1288 10.4814C70.0602 10.3047 70.0433 10.1121 70.0799 9.92619L70.4939 7.81519C70.5269 7.64695 70.5161 7.47304 70.4625 7.31018C70.4089 7.14732 70.3144 7.00097 70.1879 6.88519L68.5999 5.43119C68.4587 5.30213 68.3574 5.13526 68.3081 4.95036C68.2589 4.76547 68.2637 4.57033 68.322 4.38809C68.3803 4.20585 68.4897 4.04418 68.6372 3.92224C68.7846 3.80031 68.964 3.72325 69.1539 3.70019L71.3539 3.43019C71.5202 3.40973 71.6787 3.34782 71.8148 3.25014C71.9509 3.15247 72.0603 3.02216 72.1329 2.87119L73.0999 0.873192Z" fill="#F5B423"/>
</svg>
